<svg width="1440" height="1001" viewBox="0 0 1440 1001" fill="none" xmlns="http://www.w3.org/2000/svg">
<g clip-path="url(#clip0_4238_5054)">
<g opacity="0.5">
<g opacity="0.1">
<path d="M1221.56 685.328C1101.04 685.328 1003.34 755.859 1003.34 842.864C1003.34 929.869 1101.04 1000.4 1221.56 1000.4C1342.08 1000.4 1439.78 929.869 1439.78 842.864C1439.78 755.859 1342.08 685.328 1221.56 685.328Z" fill="#2AFF00"/>
<path d="M1025.94 500.2C905.424 500.2 807.724 570.732 807.724 657.737C807.724 744.742 905.424 815.273 1025.94 815.273C1146.46 815.273 1244.16 744.742 1244.16 657.737C1244.16 570.732 1146.46 500.2 1025.94 500.2Z" fill="#1A00FF"/>
<path d="M925.068 674.647C804.549 674.647 706.849 745.179 706.849 832.183C706.849 919.188 804.549 989.72 925.068 989.72C1045.59 989.72 1143.29 919.188 1143.29 832.183C1143.29 745.179 1045.59 674.647 925.068 674.647Z" fill="#FF5900"/>
</g>
<g opacity="0.1">
<path d="M218.219 685.328C338.738 685.328 436.438 755.859 436.438 842.864C436.438 929.869 338.738 1000.4 218.219 1000.4C97.7001 1000.4 0 929.869 0 842.864C0 755.859 97.7001 685.328 218.219 685.328Z" fill="#2AFF00"/>
<path d="M413.836 500.2C534.355 500.2 632.056 570.732 632.056 657.737C632.056 744.742 534.355 815.273 413.836 815.273C293.317 815.273 195.617 744.742 195.617 657.737C195.617 570.732 293.317 500.2 413.836 500.2Z" fill="#FF00BF"/>
<path d="M514.709 674.647C635.229 674.647 732.929 745.179 732.929 832.183C732.929 919.188 635.229 989.72 514.709 989.72C394.19 989.72 296.49 919.188 296.49 832.183C296.49 745.179 394.19 674.647 514.709 674.647Z" fill="#FF5900"/>
</g>
</g>
<g opacity="0.5">
<g opacity="0.1">
<path d="M218.223 315.073C338.742 315.073 436.442 244.541 436.442 157.536C436.442 70.5314 338.742 0 218.223 0C97.704 0 0.00390625 70.5314 0.00390625 157.536C0.00390625 244.541 97.704 315.073 218.223 315.073Z" fill="#2AFF00"/>
<path d="M413.84 500.2C534.359 500.2 632.059 429.669 632.059 342.664C632.059 255.659 534.359 185.127 413.84 185.127C293.321 185.127 195.621 255.659 195.621 342.664C195.621 429.669 293.321 500.2 413.84 500.2Z" fill="#1A00FF"/>
<path d="M514.713 325.753C635.232 325.753 732.932 255.222 732.932 168.217C732.932 81.2121 635.232 10.6807 514.713 10.6807C394.194 10.6807 296.494 81.2121 296.494 168.217C296.494 255.222 394.194 325.753 514.713 325.753Z" fill="#FF5900"/>
</g>
<g opacity="0.1">
<path d="M1221.56 315.073C1101.04 315.073 1003.34 244.541 1003.34 157.536C1003.34 70.5314 1101.04 0 1221.56 0C1342.08 0 1439.78 70.5314 1439.78 157.536C1439.78 244.541 1342.08 315.073 1221.56 315.073Z" fill="#2AFF00"/>
<path d="M1025.94 500.2C905.424 500.2 807.724 429.669 807.724 342.664C807.724 255.659 905.424 185.127 1025.94 185.127C1146.46 185.127 1244.16 255.659 1244.16 342.664C1244.16 429.669 1146.46 500.2 1025.94 500.2Z" fill="#FF00BF"/>
<path d="M925.068 325.753C804.549 325.753 706.849 255.222 706.849 168.217C706.849 81.2121 804.549 10.6807 925.068 10.6807C1045.59 10.6807 1143.29 81.2121 1143.29 168.217C1143.29 255.222 1045.59 325.753 925.068 325.753Z" fill="#FF5900"/>
</g>
</g>
</g>
<defs>
<clipPath id="clip0_4238_5054">
<rect width="1440" height="1000.4" fill="white"/>
</clipPath>
</defs>
</svg>
